<?xml version="1.0" encoding="UTF-8"?>
<svg id="Layer_1" data-name="Layer 1" xmlns="http://www.w3.org/2000/svg" viewBox="0 0 466.4 444.9">
  <defs>
    <style>
      .cls-1 {
        fill: #f5f5f5;
      }

      .cls-1, .cls-2, .cls-3, .cls-4, .cls-5, .cls-6, .cls-7, .cls-8, .cls-9, .cls-10, .cls-11, .cls-12, .cls-13, .cls-14, .cls-15, .cls-16 {
        stroke-width: 0px;
      }

      .cls-2 {
        fill: #0edd9d;
      }

      .cls-3 {
        fill: #ebebeb;
      }

      .cls-4 {
        fill: #c5f9e9;
      }

      .cls-5 {
        fill: #3fa585;
      }

      .cls-6 {
        fill: #455a64;
      }

      .cls-7 {
        fill: #263238;
      }

      .cls-8 {
        fill: #fafafa;
      }

      .cls-9 {
        fill: #e0e0e0;
      }

      .cls-10, .cls-12 {
        fill: #000;
      }

      .cls-11 {
        fill: #ae7461;
      }

      .cls-12 {
        isolation: isolate;
      }

      .cls-12, .cls-17 {
        opacity: .3;
      }

      .cls-13 {
        fill: #6f4439;
      }

      .cls-14 {
        fill: #ff725e;
      }

      .cls-15 {
        fill: #4ebd9d;
      }

      .cls-16 {
        fill: #fff;
      }
    </style>
  </defs>
  <g id="Background_Complete" data-name="Background Complete">
    <rect class="cls-1" x="28.04" y="244.92" width="52.97" height="199.45"/>
    <rect class="cls-1" x="315.07" y="311.25" width="52.97" height="132.02"/>
    <rect class="cls-1" x="395.97" y="207.47" width="52.97" height="235.8"/>
    <rect class="cls-1" x="225.33" y="216.03" width="52.97" height="227.24"/>
    <rect class="cls-1" x="119.05" y="151.7" width="52.97" height="291.57"/>
    <g>
      <g>
        <path class="cls-3" d="M395.97,21.41s-.26.27-.77.79c-.53.52-1.3,1.28-2.31,2.28-2.05,2-5.06,4.95-8.95,8.76-7.81,7.62-19.15,18.68-33.29,32.47-28.32,27.57-67.87,66.05-112.77,109.75l-.2.19-.18-.21c-8.87-10.62-18.13-21.72-27.58-33.04-25.37-30.41-49.43-59.25-70.78-84.85l.38-.02c-25.11,37.74-46.33,69.65-61.29,92.13-7.49,11.22-13.4,20.09-17.45,26.16-2.03,3.02-3.58,5.34-4.64,6.92-.53.78-.93,1.37-1.2,1.77-.27.4-.42.59-.42.59,0,0,.12-.21.38-.61.27-.41.66-1.01,1.17-1.8,1.04-1.59,2.58-3.92,4.58-6.96,4.02-6.09,9.9-14.98,17.34-26.23,14.92-22.5,36.09-54.44,61.13-92.23l.18-.26.2.24c21.37,25.59,45.44,54.42,70.82,84.82,9.44,11.32,18.71,22.42,27.57,33.04l-.38-.02c44.95-43.65,84.53-82.09,112.89-109.63,14.19-13.75,25.56-24.77,33.4-32.36,3.92-3.78,6.95-6.71,9.01-8.7,1.03-.98,1.81-1.73,2.34-2.24.53-.5.81-.75.81-.75h0Z"/>
        <circle class="cls-3" cx="139.33" cy="57.4" r="9.83"/>
        <circle class="cls-3" cx="54.53" cy="185.11" r="9.83"/>
        <circle class="cls-3" cx="237.71" cy="175.28" r="9.83"/>
      </g>
      <circle class="cls-3" cx="401.01" cy="17.67" r="9.83" transform="translate(295.75 405.02) rotate(-77.32)"/>
    </g>
    <path class="cls-4" d="M41.18,37.19c2.4-1.45,4.96-2.55,7.6-3.31l1.57-7.53,12.72-.22,1.83,7.47c2.67.66,5.26,1.67,7.72,3.04l6.43-4.21,9.15,8.84-3.98,6.57c1.45,2.41,2.56,4.97,3.3,7.61l7.53,1.57.22,12.72-7.47,1.83c-.66,2.66-1.67,5.26-3.04,7.72l4.21,6.43-8.83,9.15-6.57-3.98c-2.41,1.45-4.97,2.55-7.61,3.3l-1.57,7.53-12.72.22-1.83-7.47c-2.66-.66-5.26-1.67-7.72-3.04l-6.43,4.21-9.15-8.84,3.98-6.57c-1.45-2.41-2.56-4.97-3.31-7.61l-7.53-1.57-.22-12.72,7.47-1.83c.66-2.66,1.67-5.26,3.04-7.72l-4.21-6.43,8.83-9.15,6.57,3.98h.02ZM47.96,54.14c-5.23,5.42-5.08,14.06.34,19.29s14.06,5.08,19.29-.34c5.23-5.42,5.08-14.06-.34-19.29s-14.06-5.08-19.29.34Z"/>
    <path class="cls-4" d="M251.08,14.22c2.99-1.81,6.17-3.18,9.45-4.11l1.95-9.36,15.81-.28,2.27,9.28c3.31.82,6.54,2.07,9.59,3.77l7.99-5.24,11.37,10.98-4.95,8.17c1.81,2.99,3.18,6.17,4.11,9.45l9.35,1.95.28,15.81-9.28,2.28c-.82,3.31-2.07,6.54-3.77,9.59l5.24,7.99-10.98,11.37-8.17-4.95c-2.99,1.81-6.17,3.18-9.45,4.11l-1.95,9.36-15.81.28-2.28-9.28c-3.31-.82-6.54-2.07-9.59-3.77l-7.99,5.24-11.37-10.98,4.95-8.17c-1.81-2.99-3.18-6.17-4.11-9.45l-9.36-1.95-.28-15.81,9.28-2.28c.82-3.31,2.07-6.54,3.77-9.59l-5.24-7.99,10.98-11.37,8.17,4.95h.02ZM259.51,35.28c-6.51,6.74-6.32,17.48.42,23.98,6.74,6.51,17.48,6.32,23.98-.42,6.51-6.74,6.32-17.48-.42-23.98-6.74-6.51-17.47-6.32-23.98.42Z"/>
    <path class="cls-4" d="M101.99,5.79c1.26-.76,2.6-1.34,3.98-1.73l.82-3.94,6.66-.12.96,3.91c1.39.34,2.75.87,4.04,1.59l3.36-2.21,4.79,4.62-2.09,3.44c.76,1.26,1.34,2.6,1.73,3.98l3.94.82.12,6.66-3.91.96c-.34,1.39-.87,2.75-1.59,4.04l2.2,3.36-4.62,4.79-3.44-2.09c-1.26.76-2.6,1.34-3.98,1.73l-.82,3.94-6.66.12-.96-3.91c-1.39-.34-2.75-.87-4.04-1.59l-3.36,2.21-4.79-4.62,2.09-3.44c-.76-1.26-1.34-2.6-1.73-3.98l-3.94-.82-.12-6.66,3.91-.96c.34-1.39.87-2.75,1.59-4.04l-2.2-3.36,4.62-4.79,3.44,2.09h0ZM105.54,14.65c-2.74,2.84-2.66,7.36.18,10.1,2.84,2.74,7.36,2.66,10.1-.18s2.66-7.36-.18-10.1c-2.84-2.74-7.36-2.66-10.1.18Z"/>
    <path class="cls-4" d="M412.07,75.67c1.7-1.03,3.51-1.81,5.38-2.34l1.11-5.33,9-.16,1.3,5.29c1.89.46,3.73,1.18,5.46,2.15l4.55-2.98,6.48,6.25-2.82,4.65c1.03,1.7,1.81,3.52,2.34,5.38l5.33,1.11.16,9-5.29,1.3c-.46,1.89-1.18,3.72-2.15,5.46l2.98,4.55-6.25,6.48-4.65-2.82c-1.7,1.03-3.51,1.81-5.38,2.34l-1.11,5.33-9,.16-1.3-5.29c-1.89-.46-3.72-1.18-5.46-2.15l-4.55,2.98-6.48-6.25,2.82-4.65c-1.03-1.7-1.81-3.51-2.34-5.38l-5.33-1.11-.16-9,5.29-1.3c.46-1.89,1.18-3.72,2.15-5.46l-2.98-4.55,6.25-6.48,4.65,2.82h0ZM416.87,87.66c-3.71,3.84-3.6,9.95.24,13.66,3.84,3.71,9.95,3.6,13.66-.24,3.7-3.84,3.6-9.95-.24-13.66-3.84-3.7-9.95-3.6-13.66.24Z"/>
  </g>
  <g id="Floor">
    <path class="cls-7" d="M466.4,444.64c0,.14-104.42.26-233.19.26s-233.21-.12-233.21-.26,104.39-.26,233.21-.26,233.19.12,233.19.26Z"/>
  </g>
  <g id="Briefcase">
    <g>
      <path class="cls-7" d="M305.3,444.64h82.08c1.57,0,2.81-1.33,2.7-2.89l-4.1-58.09c-.1-1.41-1.28-2.51-2.69-2.51l-75.35-.11c-1.45,0-2.64,1.14-2.7,2.58l-2.63,58.2c-.07,1.54,1.16,2.83,2.7,2.83h-.01Z"/>
      <path class="cls-6" d="M316.62,444.64c.13,0,.23-14.21.23-31.74s-.1-31.75-.23-31.75-.23,14.21-.23,31.75.1,31.74.23,31.74Z"/>
      <path class="cls-6" d="M317.6,382.65s.04.08.12.23c.1.17.24.39.4.66.38.6.91,1.43,1.58,2.49,1.4,2.15,3.42,5.27,6.16,8.96,2.76,3.66,6.23,7.95,10.9,11.88,2.32,1.97,4.96,3.8,7.88,5.38,2.93,1.54,6.23,2.77,9.77,3.06,3.55.3,7.01-.5,10.08-1.75,3.08-1.26,5.84-2.96,8.2-4.88,4.74-3.87,7.88-8.56,9.8-12.73,1.93-4.2,2.62-7.92,2.9-10.46.06-.64.12-1.21.15-1.7,0-.49.01-.9.02-1.25v-.77c0-.17,0-.26-.02-.26,0,0-.02.09-.03.26-.01.2-.03.45-.05.77-.02.35-.04.76-.06,1.25-.04.49-.12,1.05-.19,1.69-.34,2.52-1.07,6.2-3.02,10.34-1.94,4.11-5.07,8.73-9.77,12.53-2.35,1.89-5.07,3.56-8.11,4.79-3.03,1.22-6.42,1.99-9.87,1.71-3.46-.28-6.7-1.48-9.6-3-2.89-1.56-5.5-3.37-7.82-5.31-4.64-3.88-8.12-8.13-10.91-11.75-2.76-3.66-4.83-6.74-6.27-8.86-.7-1.04-1.26-1.86-1.66-2.45-.18-.26-.33-.47-.44-.63-.1-.14-.16-.21-.16-.21h.02Z"/>
      <path class="cls-6" d="M351.56,415.36c0,2.08,1.69,3.77,3.77,3.77s3.77-1.69,3.77-3.77-1.69-3.77-3.77-3.77-3.77,1.69-3.77,3.77Z"/>
      <path class="cls-7" d="M329.52,369.31c1.58-1.46,3.79-2,5.93-2.21,5.16-.51,10.83.56,15.33,3.12s7.82,6.82,10.02,11.51l-2.96,3.1c-1.21-4.88-3.91-9.12-8.1-11.89-4.19-2.77-8.64-4.04-13.6-3.24-1.14.18-2.75.61-3.7,1.27-1.94,1.35-2.23,2.93-1.89,4.94.51,2.97,1.25,4.26,2.52,5.86-2.18.05-2.69.06-4.87.11-.55-2.15-1.1-4.33-1.06-6.54.04-2.22.75-4.51,2.37-6.02h.01Z"/>
    </g>
  </g>
  <g id="Books">
    <g>
      <g>
        <rect class="cls-8" x="215.99" y="414.16" width="31.12" height="12.26"/>
        <rect class="cls-6" x="214.69" y="412.05" width="97.73" height="2.57"/>
        <rect class="cls-6" x="215.14" y="425.87" width="97.27" height="2.57"/>
        <polygon class="cls-6" points="247.1 412.66 247.25 427.95 312.42 427.95 312.42 412.66 247.1 412.66"/>
        <g>
          <path class="cls-7" d="M262.94,420.29c0,2.1-1.58,3.8-3.52,3.8s-3.52-1.7-3.52-3.8,1.58-3.8,3.52-3.8,3.52,1.7,3.52,3.8Z"/>
          <path class="cls-9" d="M259.42,424.64c-2.24,0-4.07-1.95-4.07-4.35s1.83-4.35,4.07-4.35,4.07,1.95,4.07,4.35-1.83,4.35-4.07,4.35ZM259.42,417.03c-1.64,0-2.98,1.46-2.98,3.26s1.33,3.26,2.98,3.26,2.98-1.46,2.98-3.26-1.34-3.26-2.98-3.26Z"/>
        </g>
        <path class="cls-7" d="M244.77,423.41c0,.16-6.39.28-14.28.28s-14.28-.13-14.28-.28,6.39-.28,14.28-.28,14.28.13,14.28.28Z"/>
        <path class="cls-7" d="M244.77,421.28c0,.16-6.39.28-14.28.28s-14.28-.13-14.28-.28,6.39-.28,14.28-.28,14.28.13,14.28.28Z"/>
        <path class="cls-7" d="M244.77,419.14c0,.16-6.39.28-14.28.28s-14.28-.13-14.28-.28,6.39-.28,14.28-.28,14.28.13,14.28.28Z"/>
        <path class="cls-7" d="M244.77,417.01c0,.16-6.39.28-14.28.28s-14.28-.13-14.28-.28,6.39-.28,14.28-.28,14.28.13,14.28.28Z"/>
        <g>
          <rect class="cls-16" x="275.82" y="415.91" width="29.37" height="8.18"/>
          <path class="cls-9" d="M280.4,423.26c-.16,0-.28-1.46-.28-3.26s.13-3.26.28-3.26.28,1.46.28,3.26-.13,3.26-.28,3.26Z"/>
          <path class="cls-9" d="M284.28,423.26c-.16,0-.28-1.46-.28-3.26s.13-3.26.28-3.26.28,1.46.28,3.26-.13,3.26-.28,3.26Z"/>
          <path class="cls-9" d="M288.17,423.26c-.16,0-.28-1.46-.28-3.26s.13-3.26.28-3.26.28,1.46.28,3.26-.13,3.26-.28,3.26Z"/>
          <path class="cls-9" d="M292.05,423.26c-.16,0-.28-1.46-.28-3.26s.13-3.26.28-3.26.28,1.46.28,3.26-.13,3.26-.28,3.26Z"/>
          <path class="cls-9" d="M295.93,423.26c-.16,0-.28-1.46-.28-3.26s.13-3.26.28-3.26.28,1.46.28,3.26-.13,3.26-.28,3.26Z"/>
          <path class="cls-9" d="M299.81,423.26c-.16,0-.28-1.46-.28-3.26s.13-3.26.28-3.26.28,1.46.28,3.26-.13,3.26-.28,3.26Z"/>
        </g>
      </g>
      <g>
        <rect class="cls-8" x="220.12" y="430.09" width="31.12" height="12.26"/>
        <rect class="cls-15" x="218.83" y="427.99" width="97.73" height="2.57"/>
        <rect class="cls-15" x="219.28" y="441.81" width="97.27" height="2.57"/>
        <polygon class="cls-15" points="251.24 428.6 251.39 443.88 316.55 443.88 316.55 428.6 251.24 428.6"/>
        <g>
          <path class="cls-7" d="M267.08,436.23c0,2.1-1.58,3.8-3.52,3.8s-3.52-1.7-3.52-3.8,1.58-3.8,3.52-3.8,3.52,1.7,3.52,3.8Z"/>
          <path class="cls-9" d="M263.55,440.58c-2.24,0-4.07-1.95-4.07-4.35s1.83-4.35,4.07-4.35,4.07,1.95,4.07,4.35-1.83,4.35-4.07,4.35ZM263.55,432.97c-1.64,0-2.98,1.46-2.98,3.26s1.34,3.26,2.98,3.26,2.98-1.46,2.98-3.26-1.34-3.26-2.98-3.26Z"/>
        </g>
        <path class="cls-7" d="M248.9,439.35c0,.16-6.39.28-14.28.28s-14.28-.13-14.28-.28,6.39-.28,14.28-.28,14.28.13,14.28.28Z"/>
        <path class="cls-7" d="M248.9,437.21c0,.16-6.39.28-14.28.28s-14.28-.13-14.28-.28,6.39-.28,14.28-.28,14.28.13,14.28.28Z"/>
        <path class="cls-7" d="M248.9,435.08c0,.16-6.39.28-14.28.28s-14.28-.13-14.28-.28,6.39-.28,14.28-.28,14.28.13,14.28.28Z"/>
        <path class="cls-7" d="M248.9,432.94c0,.16-6.39.28-14.28.28s-14.28-.13-14.28-.28,6.39-.28,14.28-.28,14.28.13,14.28.28Z"/>
        <g>
          <rect class="cls-16" x="279.96" y="431.85" width="29.37" height="8.18"/>
          <path class="cls-9" d="M284.53,439.2c-.16,0-.28-1.46-.28-3.26s.13-3.26.28-3.26.28,1.46.28,3.26-.13,3.26-.28,3.26Z"/>
          <path class="cls-9" d="M288.42,439.2c-.16,0-.28-1.46-.28-3.26s.13-3.26.28-3.26.28,1.46.28,3.26-.13,3.26-.28,3.26Z"/>
          <path class="cls-9" d="M292.3,439.2c-.16,0-.28-1.46-.28-3.26s.13-3.26.28-3.26.28,1.46.28,3.26-.13,3.26-.28,3.26Z"/>
          <path class="cls-9" d="M296.18,439.2c-.16,0-.28-1.46-.28-3.26s.13-3.26.28-3.26.28,1.46.28,3.26-.13,3.26-.28,3.26Z"/>
          <path class="cls-9" d="M300.07,439.2c-.16,0-.28-1.46-.28-3.26s.13-3.26.28-3.26.28,1.46.28,3.26-.13,3.26-.28,3.26Z"/>
          <path class="cls-9" d="M303.95,439.2c-.16,0-.28-1.46-.28-3.26s.13-3.26.28-3.26.28,1.46.28,3.26-.13,3.26-.28,3.26Z"/>
        </g>
      </g>
    </g>
  </g>
  <g id="Speech_Bubble" data-name="Speech Bubble">
    <g>
      <g>
        <path class="cls-16" d="M187.68,136.14l-8.05-1.61c-5.41,3.04-11.81,4.51-18.54,3.82-15.88-1.64-28.13-15.35-28.01-31.31.14-18.44,16.08-32.82,34.56-30.9,15.69,1.63,27.86,15.03,27.99,30.8.06,7.83-2.72,14.94-7.35,20.43h0l-.61,8.77Z"/>
        <path class="cls-7" d="M187.68,136.14s0-.21.02-.59c.02-.41.05-.97.09-1.7.09-1.5.22-3.68.38-6.49l.18.1h0c-.05.05-.12.03-.16-.02-.03-.04-.03-.1,0-.14,2.46-2.97,5.28-7.44,6.55-13.47.64-2.99.86-6.34.5-9.86-.38-3.52-1.42-7.2-3.22-10.73-1.81-3.52-4.41-6.87-7.72-9.66-3.3-2.78-7.31-5.06-11.81-6.23-4.48-1.21-9.37-1.41-14.18-.49-4.82.9-9.49,3.12-13.45,6.33-2.05,1.58-3.75,3.51-5.33,5.49-.71,1.04-1.44,2.07-2.07,3.16l-.87,1.66-.43.83-.34.86c-1.93,4.56-2.66,9.46-2.39,14.13.25,4.69,1.73,9.11,3.84,12.92,2.12,3.82,4.94,7.03,8.07,9.5,3.15,2.46,6.59,4.19,9.99,5.23.86.22,1.71.44,2.54.65.84.19,1.68.28,2.5.42,1.64.26,3.25.3,4.78.28,6.17-.13,11.08-2.05,14.42-3.89.02,0,.05-.02.08,0,2.56.54,4.55.96,5.93,1.25.67.14,1.18.26,1.56.34.35.08.54.13.54.13,0,0-.17-.02-.51-.08-.37-.07-.88-.16-1.54-.28-1.4-.26-3.42-.65-6.02-1.14h.08c-3.34,1.88-8.28,3.87-14.52,4.04-1.55.03-3.18,0-4.84-.25-.83-.14-1.68-.22-2.53-.41-.85-.21-1.71-.43-2.58-.65-3.45-1.05-6.95-2.78-10.15-5.27-3.19-2.49-6.06-5.75-8.23-9.62-2.15-3.87-3.66-8.36-3.93-13.13-.29-4.75.45-9.74,2.41-14.39l.35-.88.44-.84c.29-.56.59-1.12.89-1.69.63-1.1,1.38-2.15,2.1-3.22,1.6-2.01,3.34-3.98,5.42-5.59,4.03-3.27,8.78-5.53,13.69-6.44,4.9-.94,9.88-.72,14.43.51,4.58,1.2,8.65,3.53,12,6.36,3.35,2.85,5.98,6.26,7.81,9.84,1.81,3.59,2.85,7.33,3.22,10.9.34,3.57.11,6.96-.57,9.98-1.33,6.09-4.22,10.58-6.73,13.54l-.15-.17h0c.05-.05.12-.03.16.02.02.02.02.05.02.07-.23,2.84-.4,5.04-.52,6.56-.06.72-.11,1.27-.14,1.67-.03.37-.06.55-.06.55h0Z"/>
      </g>
      <polygon class="cls-2" points="150.48 109.26 154.4 105.07 162.46 111.76 177.31 96.46 181.21 100.39 162.14 119.6 150.48 109.26"/>
    </g>
  </g>
  <g id="Character">
    <g>
      <g>
        <path class="cls-5" d="M404.91,83.58h-25.46l-74.29,44.71c.28.42,9.05,6.76,20.5,14.95l-107.58,198.08-90.03-39.76-79.72,143.28h43.56l54.93-100.34,82.62,38.27,35.02,4.18,94.81-219.8c11.91,8.45,21.06,14.91,21.06,14.91h25.46s-7.42-62.31-7.42-62.81,6.54-35.67,6.54-35.67h0Z"/>
        <polygon class="cls-2" points="74.11 444.83 154.15 300.32 243.86 341.31 359.56 128.29 394.01 146.38 264.47 386.94 172.6 344.49 117.67 444.83 74.11 444.83"/>
        <path class="cls-2" d="M330.63,128.29c.82,1.23,75.18,53.77,75.18,53.77l-.89-98.48-74.29,44.71h0Z"/>
        <path class="cls-7" d="M330.63,128.29c0,.14-5.7.26-12.73.26s-12.73-.12-12.73-.26,5.7-.26,12.73-.26,12.73.12,12.73.26Z"/>
        <path class="cls-7" d="M350.51,143.65c0,.14-5.7.26-12.73.26s-12.73-.12-12.73-.26,5.7-.26,12.73-.26,12.73.12,12.73.26Z"/>
      </g>
      <g>
        <g>
          <g>
            <path class="cls-11" d="M159.32,232.84s-1.54.67-1.79-1.39c-.24-2.06,4.06-6.36,5.43-7.72s3.34-1.07,5.08-.68c1.74.39,8.88,1.11,11.25,2.63s5.99,9.15,6.75,9.51,23.02,1.52,23.02,1.52l-.96,18.25s-21.85-4.16-26.18-6.87-3.76-3.79-4.99-6.31c-1.23-2.53-2.55-5.21-2.55-5.21l-2.05-.34-3.28,1.81s-.39,4.63-3.63,4.51l-1.59-.84s-1.06,1.23-2.27-.67-.98-2.25-.98-2.25c0,0-1.27,1.57-2.65-.38-1.37-1.95,1.38-5.57,1.38-5.57h0Z"/>
            <path class="cls-13" d="M183.31,240.59s-.08.04-.24.08c-.16.04-.41.07-.73.07-.63,0-1.6-.15-2.62-.74-1.02-.58-2.09-1.62-2.78-3.08-.71-1.45-1.05-3.23-1.15-5.11l.35.21c-1.46.68-3.19,1.11-4.99,1.18-1.27.05-2.51-.09-3.67-.39-.55-.16-1.2-.25-1.68-.78-.26-.25-.32-.78-.06-1.07.24-.3.54-.4.79-.51,2-.81,3.85-1.44,5.41-1.92s2.84-.8,3.73-1,1.39-.28,1.4-.25c0,.04-.47.18-1.35.44-.87.26-2.13.64-3.67,1.16s-3.36,1.18-5.34,2.01c-.24.1-.47.21-.58.36-.1.14-.1.3.04.46.29.34.87.46,1.42.61,1.11.27,2.31.41,3.53.36,1.74-.06,3.39-.47,4.8-1.11l.34-.15.02.37c.08,1.85.39,3.57,1.04,4.95.63,1.4,1.6,2.4,2.55,2.99.95.6,1.85.8,2.46.85.62.04.95-.02.96.02h.02Z"/>
            <path class="cls-13" d="M172.03,228.07c.04.05-.75.48-2.1.41-.66,0-1.44-.12-2.27-.06-.84.04-1.63.39-2.28,1.15-1.35,1.51-2.97,2.51-4.19,3.02-1.23.52-2.05.62-2.06.57-.02-.08.76-.31,1.91-.9,1.15-.59,2.65-1.57,3.97-3.05.35-.36.74-.73,1.22-.94.47-.22.96-.3,1.41-.32.91-.03,1.68.12,2.32.18,1.29.16,2.05-.12,2.08-.04v-.02Z"/>
            <path class="cls-13" d="M167.45,232.94c.12.04-.78,2.09-2.84,3.84-2.04,1.77-4.21,2.35-4.23,2.22-.06-.15,1.94-.92,3.89-2.62,1.97-1.67,3.04-3.53,3.18-3.45h0Z"/>
            <path class="cls-13" d="M168.25,235.74c.13,0-.16,1.81-1.47,3.57-1.29,1.78-2.91,2.6-2.96,2.48-.09-.13,1.33-1.1,2.54-2.79,1.24-1.67,1.74-3.31,1.89-3.27h0Z"/>
          </g>
          <polygon class="cls-9" points="235.5 197.27 215.57 233.23 184.65 232.7 182.32 251.27 214.23 259.09 227.37 244.66 235.5 197.27"/>
          <path class="cls-7" d="M218.06,239.33c-.15,0-.35-1.46-1.04-3.13-.67-1.68-1.57-2.87-1.45-2.97.09-.1,1.22,1,1.93,2.77.73,1.76.69,3.33.55,3.33h0Z"/>
        </g>
        <g>
          <g>
            <path class="cls-7" d="M243.07,133.64c-2.52.33-5.15-1.47-5.73-3.95-.59-2.47.95-5.27,3.35-6.1-1.6-1.58-2.04-4.22-1.05-6.23,1-2.02,3.36-3.27,5.59-2.96.05-2.22,1.34-4.37,3.27-5.47,1.93-1.1,4.44-1.1,6.37,0,2.41-2.15,6.37-2.3,8.94-.34,2.15-.44,4.52.67,5.57,2.59,1.05,1.93.69,4.52-.85,6.09"/>
            <g>
              <g>
                <path class="cls-11" d="M265.03,113.69l-1.14.02c-11.47.22-20.85,9.22-21.55,20.67-.65,10.65-1.24,22.43-1.05,28.14.38,11.81,12.23,13.42,12.23,13.42l-.72,14.22,1.4,10.84,27.26-12.28,1.54-51.53c.82-12.29-5.65-23.01-17.95-23.49h-.02Z"/>
                <path class="cls-13" d="M253.41,175.92s7.55.31,15.39-4.83c0,0-3.66,9.15-15.47,8.31l.08-3.48h0Z"/>
                <path class="cls-7" d="M246.17,146.42c0,.89.73,1.64,1.66,1.67.93.03,1.7-.66,1.71-1.56,0-.89-.73-1.64-1.66-1.67-.93-.03-1.7.66-1.71,1.56Z"/>
                <path class="cls-7" d="M244.98,140.11c.21.22,1.47-.76,3.29-.79,1.81-.06,3.16.85,3.36.63.09-.1-.13-.49-.71-.9-.58-.41-1.56-.8-2.69-.77s-2.07.46-2.61.9c-.55.44-.73.84-.63.94h0Z"/>
                <path class="cls-7" d="M261.55,146.05c-.01.89.73,1.64,1.66,1.67s1.7-.66,1.71-1.56c.01-.89-.73-1.64-1.66-1.67s-1.7.66-1.71,1.56Z"/>
                <path class="cls-7" d="M262.84,140.1c.21.22,1.48-.75,3.29-.78,1.81-.06,3.16.85,3.36.63.09-.1-.12-.49-.71-.9-.58-.41-1.56-.8-2.69-.77s-2.07.46-2.61.9c-.55.44-.73.84-.63.94v-.02Z"/>
                <path class="cls-7" d="M256.51,153.7c0-.1-1.13-.28-2.96-.48-.46-.04-.91-.12-.99-.44-.12-.33.07-.84.28-1.38.41-1.13.85-2.32,1.3-3.56,1.81-5.06,3.1-9.22,2.9-9.29-.2-.07-1.84,3.98-3.64,9.04-.43,1.25-.85,2.44-1.24,3.58-.17.53-.46,1.13-.21,1.82.13.34.48.59.78.66.3.08.56.09.79.09,1.84.06,2.98.05,2.99-.05h0Z"/>
                <path class="cls-7" d="M261.13,133.15c.25.46,1.79-.07,3.71-.17,1.91-.14,3.53.19,3.7-.29.07-.23-.28-.64-.97-.99-.69-.36-1.74-.62-2.89-.55-1.15.07-2.14.47-2.76.9-.63.44-.9.88-.79,1.1h0Z"/>
                <path class="cls-7" d="M244.75,132.63c.39.4,1.88-.05,3.68-.11,1.8-.11,3.33.21,3.68-.23.15-.21-.1-.62-.77-1-.66-.38-1.77-.67-3.01-.62-1.24.06-2.3.45-2.92.89-.63.44-.83.87-.66,1.06h0Z"/>
                <path class="cls-7" d="M243.36,128.94s2.97-7.46,6.51-9.26c4.28-2.17,6.23,2.53,10.32,1.3,4.09-1.23,8.18-3.32,12.45-.22,4.67,3.39,2.56,5.88,2.95,11.12,1.57,21.23,5.56,27.17,6.47,17.14.1-1.1,3.13-2.03,3.49-6.67.47-6.02.56-13.32-.87-17.56-1.2-3.57-3.3-6.02-7.03-8.68-5.89-4.21-13.86-4.15-19.26-3.5-5.4.65-15.71,7.08-15.04,16.33h0Z"/>
                <path class="cls-11" d="M281.31,148.71c.04-1.83,1.58-3.3,3.4-3.16,2.21.17,4.68,1.37,4.63,5.93-.1,8.08-8.2,6.31-8.21,6.08,0-.16.1-5.47.18-8.85h0Z"/>
                <path class="cls-13" d="M282.93,154.55s.14.1.38.21c.23.11.63.19,1.05.03.86-.3,1.59-1.65,1.65-3.11.03-.73-.12-1.44-.37-2.02-.24-.59-.62-1.01-1.05-1.09-.43-.1-.73.15-.84.38-.11.22-.06.39-.1.4-.02.02-.17-.14-.1-.47.04-.16.13-.35.32-.5.2-.16.48-.23.78-.2.62.05,1.18.63,1.46,1.27.31.64.49,1.43.46,2.26-.07,1.63-.93,3.14-2.1,3.47-.57.14-1.04-.04-1.29-.23-.25-.2-.29-.38-.26-.4h.01Z"/>
              </g>
              <path class="cls-7" d="M280.85,133.07c-1.04.74-2.13,1.5-3.39,1.65s-2.72-.55-2.96-1.8c-.11-.56.02-1.22-.36-1.64-.45-.51-1.26-.33-1.94-.25-2.34.29-5.14-2.25-5.78-4.52-.58.91-1.89,1.21-2.81.64-.92-.57-1.25-.89-1.98-1.69s-1.74-1.51-2.8-1.33c-.6.1-1.15.46-1.75.42-1.06-.07-1.6-1.31-1.79-2.36-.18-1.05-.33-2.28-1.24-2.83-.84-.51-1.92-.19-2.89-.02s-2.24-.04-2.51-.99c-.14-.5.06-1.03.33-1.47,1.22-2,3.95-2.94,6.14-2.1.74-2.68,3.19-4.81,5.96-5.16,2.76-.35,5.67,1.11,7.04,3.53,1.68-1.58,4.15-2.28,6.4-1.81,2.26.47,4.24,2.09,5.15,4.21,1.96-.55,4.21.16,5.49,1.74,1.28,1.58,1.5,3.94.54,5.73,1.47.8,2.74,2.22,2.8,3.89.06,1.67-1.53,3.37-3.16,2.96.68,1.29.18,3.07-1.07,3.82s-3.05.36-3.87-.84"/>
              <path class="cls-6" d="M254.58,117.15v.15c0,.1.02.24.06.43.08.37.24.92.62,1.55.38.61.96,1.32,1.83,1.88.85.56,2.02.98,3.33.88l-.14-.18c-.24.7-.15,1.52.21,2.23.34.72.87,1.35,1.42,1.96.28.29.53.64.92.91.38.26.83.4,1.29.45.91.1,1.94-.2,2.58-.98l-.3-.08c.24,1.6,1.18,3.19,2.65,4.14.78.54,1.74.86,2.67.82.93-.03,1.8-.32,2.6-.62l-.22-.09c.45,1,1.14,1.84,1.96,2.46.81.62,1.87.97,2.83.71,1.9-.44,3.13-2.05,3.36-3.55l-.18.09c.96.5,1.97.53,2.78.35.82-.17,1.46-.54,1.92-.9.46-.37.72-.75.88-1,.15-.27.21-.42.2-.42-.04-.03-.26.62-1.16,1.32-.45.33-1.08.67-1.87.82-.78.15-1.74.1-2.63-.38l-.15-.08-.03.17c-.23,1.4-1.42,2.9-3.18,3.29-.87.22-1.8-.09-2.57-.68-.77-.58-1.42-1.4-1.84-2.33l-.07-.15-.15.06c-.79.3-1.63.57-2.49.59-.86.04-1.72-.25-2.47-.76-1.39-.9-2.28-2.39-2.51-3.9l-.06-.38-.25.3c-.54.67-1.46.95-2.28.87-.41-.04-.81-.17-1.14-.39-.32-.21-.58-.56-.87-.85-.55-.6-1.07-1.21-1.39-1.88-.34-.66-.42-1.39-.21-2.02l.06-.19-.2.02c-1.23.11-2.35-.27-3.19-.79-.85-.52-1.43-1.19-1.82-1.77-.76-1.21-.75-2.06-.81-2.04v-.04Z"/>
            </g>
          </g>
          <path class="cls-7" d="M257.03,159.9c.04-.3,2.03.07,3.78-1.36,1.75-1.43,1.93-3.6,2.21-3.56.13,0,.3.55.15,1.45-.14.89-.67,2.12-1.73,3-1.07.88-2.31,1.1-3.14,1.01-.85-.08-1.3-.4-1.26-.53h0Z"/>
        </g>
        <g>
          <path class="cls-9" d="M199.44,274.29l15.39-16.97,12.87-38.89c2.63-6.75,4.88-15.31,8.06-21.71,1.57-3.15,4.2-5.63,7.42-7.05l5.46-2.43,3.27-5.21c-1.88,11.79,14.65,13.25,32.21-1.4,0,0,5.8,3.93,13.98,10.71,3.58,2.97,6.83,6.21,8.18,11.12,2.46,8.9-8.1,35.24-19.6,60.02-3.44,7.41-19.82,40.62-19.82,40.62l-5.9,4.3s-52.13-15.8-56.83-24.45l-4.69-8.66h0Z"/>
          <path class="cls-7" d="M207.98,264.17s.14-.19.44-.51c.34-.36.78-.82,1.32-1.39,1.21-1.24,2.89-2.96,4.96-5.08l-.04.07c.96-2.96,2.11-6.51,3.4-10.45,1.32-3.95,2.67-8.33,4.03-12.97,2.63-9.09,5.12-17.3,7.41-23.08,1.11-2.9,2.16-5.19,2.89-6.76.37-.74.67-1.33.9-1.79.21-.41.33-.61.34-.61s-.07.23-.25.65c-.21.47-.47,1.07-.81,1.83-.68,1.59-1.67,3.9-2.73,6.8-2.2,5.79-4.63,14-7.26,23.09-1.36,4.63-2.72,9.03-4.07,12.97-1.32,3.93-2.51,7.46-3.51,10.41v.04l-.04.03c-2.12,2.07-3.84,3.75-5.08,4.96-.57.55-1.04.99-1.39,1.33-.32.3-.5.45-.51.44v.02Z"/>
          <polygon class="cls-14" points="255.84 199.41 237.81 273.34 219.08 282.65 219.08 264.57 251.49 197.81 255.84 199.41"/>
          <g class="cls-17">
            <path class="cls-10" d="M221.36,266.68c5.11,1.92,9.72,4.97,14.23,8.04,4.52,3.07,9.03,6.22,14.04,8.4s10.62,3.34,15.97,2.23c5.35-1.1,10.35-4.76,12.11-9.93l-56.35-8.75h0Z"/>
          </g>
          <polygon class="cls-9" points="248.64 187.02 253.25 179.96 255.06 189.63 259.65 184.43 282.44 173.77 286.39 182.25 261.21 197.14 254.23 196.62 249.14 190.57 248.64 187.02"/>
          <path class="cls-7" d="M248.64,187.02c.06,0,.16.54.34,1.46.23,1.1.49,2.35.77,3.73l-.46-.07c.39-.72.81-1.48,1.24-2.27.69-1.22,1.33-2.36,1.92-3.4l.25-.44.16.46c.4,1.15.62,2.12.8,2.8.17.68.28,1.06.23,1.08-.04.02-.24-.34-.48-1-.26-.65-.54-1.62-.97-2.72l.41.03c-.57,1.05-1.19,2.2-1.86,3.43-.44.79-.87,1.55-1.27,2.26l-.33.58-.13-.65c-.61-3.05-.76-5.28-.64-5.29h.02Z"/>
          <path class="cls-14" d="M256.31,190.58l-2.9-.35c-.79.88-2.71,2.7-3.49,3.59v.08c.35,1.93.69,3.87,1.04,5.8,1.62-.08,3.25.05,4.84.39.97-1.7,1.7-2.98,2.67-4.68l-2.15-4.83h-.01Z"/>
          <path class="cls-7" d="M261.26,299.62c-.06.05-.91-.86-2.34-2.27s-3.46-3.3-5.84-5.22c-2.39-1.91-4.68-3.48-6.37-4.56-1.69-1.09-2.76-1.72-2.72-1.79.02-.03.31.09.81.34.51.24,1.23.63,2.1,1.14,1.75,1.01,4.09,2.54,6.5,4.47s4.41,3.88,5.78,5.37c.68.74,1.22,1.36,1.57,1.8s.53.7.51.72h0Z"/>
          <polygon class="cls-14" points="256.53 191.18 259.75 189.59 260.85 195.23 258.16 195.47 256.53 191.18"/>
          <polygon class="cls-12" points="259.31 187.32 259.31 200.09 283.05 184.41 260.96 197.27 259.31 187.32"/>
          <path class="cls-7" d="M286.39,182.25s-.47.4-1.38,1.04c-.92.63-2.26,1.52-3.96,2.55-3.39,2.08-8.26,4.64-13.5,7.65-2.22,1.29-4.31,2.58-6.19,3.85l-.31.21-.07-.37c-.72-3.9-1.34-7.28-1.81-9.83l.27.08c-1.03.96-1.86,1.74-2.51,2.34-.59.53-.91.81-.93.79-.02-.02.26-.34.82-.91.62-.63,1.42-1.44,2.4-2.44l.21-.21.06.29c.51,2.54,1.2,5.91,1.98,9.8l-.38-.16c1.88-1.3,3.98-2.61,6.21-3.9,5.27-3.02,10.15-5.52,13.58-7.52,1.72-.98,3.09-1.82,4.04-2.4.94-.59,1.47-.9,1.49-.87h-.02Z"/>
          <polygon class="cls-14" points="253.44 191.31 252.11 188.05 249.91 192.09 250.85 193.55 253.44 191.31"/>
          <path class="cls-7" d="M257.08,190.84c.11.1-1.48,1.94-3.18,4.39-1.72,2.44-2.9,4.56-3.04,4.49-.12-.06.87-2.31,2.61-4.79,1.73-2.48,3.52-4.18,3.61-4.09h0Z"/>
          <path class="cls-7" d="M255.47,200.19c-.04.14-1.13-.02-2.46-.24-1.33-.23-2.41-.43-2.4-.57,0-.14,1.13-.17,2.49.06s2.41.62,2.37.76h0Z"/>
        </g>
        <g>
          <g>
            <path class="cls-6" d="M135.81,246.17h0l-15.02-42.46c-.29-.92.27-1.88,1.21-2.08l34.7-9.06c.87-.19,1.74.3,2.01,1.15l15.79,47.83,48.97,32.16-2.35,2.4-12.53-3.05-72.78-26.88h0Z"/>
            <path class="cls-7" d="M221.11,276.1s-.09-.04-.25-.14c-.19-.12-.42-.27-.71-.45-.65-.43-1.56-1.02-2.72-1.78-2.38-1.58-5.77-3.84-9.94-6.62-8.39-5.65-19.93-13.42-32.68-22-.89-.6-1.77-1.2-2.59-1.75l-.07-.05-.03-.08c-4.61-13.91-8.74-26.38-11.74-35.41-1.46-4.48-2.64-8.1-3.47-10.65-.39-1.23-.7-2.2-.92-2.89-.09-.31-.17-.56-.23-.75-.05-.17-.07-.26-.06-.26,0,0,.05.08.11.25.07.19.16.44.27.74.24.69.58,1.65,1.01,2.86.87,2.53,2.1,6.14,3.62,10.6,3.03,9.02,7.22,21.46,11.89,35.36l-.1-.13c.82.56,1.71,1.15,2.59,1.75,12.71,8.63,24.23,16.44,32.6,22.12,4.13,2.84,7.49,5.14,9.85,6.76,1.13.79,2.02,1.41,2.66,1.86.28.2.51.37.69.49.15.11.23.18.22.18h0Z"/>
            <path class="cls-7" d="M141.79,245.26c0-.14,6.82-.58,15.24-.98,8.43-.4,15.26-.6,15.27-.46,0,.14-6.82.58-15.24.98s-15.26.6-15.26.46h-.01Z"/>
          </g>
          <path class="cls-9" d="M147.33,221.02c.6,1.93.26,3.75-.76,4.07-1.02.32-2.34-.98-2.95-2.9-.6-1.93-.26-3.75.76-4.07,1.02-.32,2.34.98,2.95,2.9Z"/>
        </g>
        <g>
          <g>
            <path class="cls-11" d="M190.08,236.17s-1.3.64-1.5-1.42c-.18-1.83,4.22-4.55,5.87-5.57s5.12-.32,6.89-.09c2.39.31,7.97,2.81,9.74,4.94,1.8,2.16,3.04,7.69,3.69,8.21.66.52,22.83,9.25,22.83,9.25l-5.05,17.56s-20.35-8.98-23.96-12.6c-3.61-3.61-2.81-4.54-3.44-7.27-.63-2.74-1.31-5.65-1.31-5.65l-1.92-.79-3.6,1.02s-.44,1.37-1.37,2.44c-1.11,1.28-3.12,1.22-4.23-.05h0s-1.83.64-2.72-1.43c-.37-.85-.1-2.13-.1-2.13,0,0-1.64.32-1.65-1.72,0-2.19,1.83-4.7,1.83-4.7h0Z"/>
            <path class="cls-13" d="M201.63,238.49c0,.09-.74.06-1.88.31-1.13.24-2.67.83-4,2s-2.11,2.62-2.49,3.72c-.39,1.1-.46,1.84-.54,1.83-.06,0-.12-.76.19-1.94.31-1.17,1.08-2.75,2.5-4s3.08-1.82,4.28-1.97c1.21-.17,1.96,0,1.95.05h0Z"/>
            <path class="cls-13" d="M199.97,234.72c0,.09-.81-.04-2.03.24-1.21.27-2.81,1.05-4.18,2.39-1.37,1.35-2.29,2.86-2.97,3.93-.67,1.09-1.09,1.76-1.15,1.73s.24-.77.83-1.91c.6-1.13,1.49-2.71,2.92-4.12,1.43-1.41,3.17-2.19,4.47-2.38,1.31-.2,2.12.07,2.1.12h0Z"/>
            <path class="cls-13" d="M199.65,230.6c0,.09-.7,0-1.76.19-1.06.18-2.49.73-3.82,1.71-1.34.98-2.37,2.11-3.12,2.92s-1.23,1.31-1.29,1.26c-.05-.04.32-.62,1.01-1.5.69-.87,1.7-2.07,3.1-3.1,1.4-1.03,2.94-1.56,4.08-1.66,1.14-.11,1.83.12,1.82.17h-.02Z"/>
          </g>
          <g>
            <g>
              <path class="cls-9" d="M294.27,190.71c6.23,1.22,10.29,6.7,11.56,13.54,1.8,9.71-20.47,55.63-24.62,65.65-4.37,10.56-14.04,12.87-19.68,12.74-5.63-.13-45.1-18.64-45.1-18.64l5.79-20.03,35.07,10.41,13.9-39.1"/>
              <path class="cls-7" d="M271.19,215.29s-.07.24-.22.7c-.16.47-.39,1.15-.69,2.03-.63,1.8-1.54,4.42-2.72,7.79-2.39,6.78-5.83,16.56-10.09,28.64l-.06.17-.17-.05c-10.08-2.98-21.99-6.5-35.08-10.36l.3-.16c-1.85,6.4-3.78,13.1-5.77,20.03l-.14-.3c9.21,4.28,19.07,8.77,29.35,13.09,4.17,1.73,8.31,3.46,12.49,4.79l1.57.45c.52.14,1.04.18,1.56.28,1.08.02,2.16-.03,3.22-.18,2.13-.26,4.2-.87,6.11-1.73,3.84-1.73,7.02-4.69,8.96-8.26.98-1.76,1.7-3.68,2.53-5.51.82-1.83,1.64-3.64,2.44-5.43,6.48-14.28,12.22-27.19,16.34-38.3,2.03-5.56,3.78-10.66,4.5-15.3.15-1.16.24-2.29.09-3.35-.21-1.07-.44-2.09-.77-3.04-.62-1.91-1.46-3.56-2.4-4.91-1.89-2.73-4.17-4.13-5.75-4.81-.8-.34-1.43-.55-1.87-.65-.43-.11-.65-.19-.65-.19,0,0,.23.04.66.13.44.09,1.08.28,1.89.6,1.6.66,3.93,2.04,5.87,4.79.97,1.36,1.82,3.03,2.47,4.95.33.96.58,1.99.8,3.07.17,1.11.08,2.27-.06,3.44-.69,4.69-2.43,9.81-4.44,15.39-4.08,11.15-9.8,24.08-16.25,38.37-.8,1.79-1.61,3.6-2.43,5.43-.83,1.82-1.54,3.73-2.55,5.55-1.97,3.66-5.24,6.71-9.18,8.48-1.97.89-4.08,1.51-6.26,1.78-1.09.15-2.19.2-3.3.19-.55-.1-1.13-.15-1.67-.29l-1.6-.46c-4.22-1.34-8.35-3.07-12.54-4.8-10.29-4.33-20.15-8.82-29.36-13.11l-.2-.09.06-.21c2.01-6.93,3.95-13.62,5.8-20.02l.07-.23.23.07c13.08,3.9,24.98,7.45,35.05,10.46l-.23.12c4.32-12.06,7.82-21.82,10.25-28.58,1.22-3.36,2.16-5.97,2.81-7.76.32-.87.57-1.54.74-2.01.17-.45.27-.68.27-.68l.02-.02Z"/>
            </g>
            <path class="cls-7" d="M262.89,269.08c-.16.03-.7-3.49-2.26-7.55-1.54-4.07-3.48-7.05-3.34-7.14.05-.04.61.66,1.36,1.89.75,1.23,1.68,3,2.46,5.06s1.27,4,1.53,5.42.31,2.31.25,2.32h0Z"/>
            <path class="cls-7" d="M291.85,190.8c.03.09-1.29.52-3.27,1.52-.99.49-2.13,1.17-3.34,1.99-1.2.85-2.46,1.85-3.67,3.03-1.2,1.19-2.24,2.42-3.11,3.6-.85,1.19-1.55,2.31-2.07,3.3-1.05,1.96-1.5,3.27-1.59,3.24-.03,0,.06-.35.25-.94.18-.6.53-1.45,1.02-2.46.48-1.02,1.16-2.18,2.01-3.41.87-1.21,1.91-2.48,3.14-3.69,1.24-1.2,2.53-2.21,3.77-3.05,1.25-.82,2.42-1.47,3.45-1.93,1.02-.47,1.88-.79,2.48-.96.6-.18.94-.26.95-.23h-.02Z"/>
          </g>
        </g>
        <g>
          <path class="cls-7" d="M73.04,334.84l-18.95-23.69s73.31-60.4,80.24-64.71c5.25-3.27,15.92-7.61,26.02-4.21,10.1,3.39,27.2,15.21,33.5,19.04s61.17,37.82,67.1,46.13c0,0-11.94,21.6-19.76,25.22-6.12,2.84-23.77-1.4-34.09-7.67-10.31-6.27-57.63-46.79-57.63-46.79l-76.44,56.68h0Z"/>
          <path class="cls-7" d="M80.1,362.61l25.6,18.39,49.27-80.3,49.75,22.67-33.45-55.89s-26.98.32-31.22-.16c-5.44-.61-15.37,7.97-20.79,18.46-4.71,9.11-39.16,76.83-39.16,76.83h0Z"/>
          <path class="cls-6" d="M188.63,316.75c-.1.1-11.34-11.36-25.09-25.6-13.76-14.24-24.82-25.86-24.72-25.96.1-.1,11.34,11.36,25.09,25.6,13.75,14.24,24.82,25.86,24.72,25.96Z"/>
          <path class="cls-12" d="M94.49,318.94s22.05-41.2,32.43-43.95c0,0-15.02,20.36-20.05,34.77l-12.38,9.18h0Z"/>
          <path class="cls-6" d="M143.51,270.07c-.02.07-1-.4-2.89-.55-1.88-.18-4.7.14-7.74,1.65-3.06,1.47-6.08,4.3-8.73,7.92-2.64,3.64-5.29,7.85-7.82,12.39-5,9.13-8.86,17.76-11.93,23.86-1.51,3.06-2.8,5.51-3.71,7.19-.45.8-.81,1.44-1.08,1.92-.25.44-.39.66-.41.65-.02,0,.09-.25.31-.7.25-.49.58-1.15.99-1.96.85-1.71,2.09-4.18,3.56-7.26,2.99-6.14,6.79-14.79,11.81-23.95,2.55-4.56,5.21-8.77,7.89-12.42,2.7-3.64,5.8-6.5,8.95-7.96,3.13-1.49,6.02-1.77,7.92-1.52,1.92.22,2.88.76,2.88.76v-.02Z"/>
          <g>
            <path class="cls-7" d="M92.67,347.69l-14.02,25.85s-31.27-3.69-34.05,1.01l50.81,25.98,21.09-40.73-23.82-12.1h-.01Z"/>
            <path class="cls-9" d="M95.48,379.37c2.07,1.87-.69,5.17-2.85,3.35-2.3-2.08.99-5.43,3-3.19"/>
            <path class="cls-6" d="M95.4,400.52l1.96-4.19-49.45-23.34s-2.77-.17-3.32,1.55l50.81,25.98Z"/>
            <path class="cls-16" d="M77.95,372.86c-.12.25,1.06,1,1.88,2.42.85,1.4.93,2.8,1.21,2.82,1.42-.86-1.65-6.06-3.09-5.24h0Z"/>
            <path class="cls-16" d="M71.5,372.34c-.18.21.68,1.18.99,2.66.35,1.47-.02,2.71.24,2.83,1.63-.33.39-5.88-1.22-5.49h0Z"/>
            <path class="cls-16" d="M65.21,377.17c1.37.18,1.57-5.32.2-5.24.07.17-.12,5.09-.2,5.24Z"/>
            <path class="cls-16" d="M81.46,367.1c.18,0,5.04,2.85,5.11,3,.78-1.16-4.48-4.25-5.11-3Z"/>
          </g>
          <g>
            <path class="cls-7" d="M73.59,301.62l-24.03,16.94s-26.39-17.18-30.96-14.2l34.02,45.82,36.05-28.38-15.07-20.18h-.01Z"/>
            <path class="cls-9" d="M62.06,331.26c1.03,2.59-2.91,4.32-4.04,1.74-1.14-2.89,3.29-4.43,4.11-1.53"/>
            <path class="cls-6" d="M52.62,350.18l3.62-2.88-33.97-42.85s-2.4-1.38-3.67-.08l34.02,45.82h0Z"/>
            <path class="cls-16" d="M49.24,317.65c-.22.17.51,1.37.61,3,.14,1.63-.41,2.92-.17,3.06,1.65-.14,1.21-6.17-.44-6.06Z"/>
            <path class="cls-16" d="M43.69,314.32c-.25.11.08,1.36-.3,2.82-.34,1.47-1.22,2.42-1.04,2.64,1.61.42,2.96-5.1,1.34-5.46h0Z"/>
            <path class="cls-16" d="M35.91,315.86c1.15.77,3.77-4.07,2.5-4.61-.02.18-2.37,4.5-2.5,4.61Z"/>
          </g>
          <path class="cls-12" d="M184.86,312.85s-28.02-21.33-34.7-29.55c-6.59-8.11-10.1-15.99-10.1-15.99l44.81,45.54h0Z"/>
        </g>
      </g>
    </g>
  </g>
</svg>